<?xml version="1.0" encoding="utf-8"?>
<!-- Generator: Adobe Illustrator 23.0.2, SVG Export Plug-In . SVG Version: 6.00 Build 0)  -->
<svg version="1.1" xmlns="http://www.w3.org/2000/svg" xmlns:xlink="http://www.w3.org/1999/xlink" x="0px" y="0px"
	 viewBox="0 0 2100 1450" style="enable-background:new 0 0 2100 1450;" xml:space="preserve">
<style type="text/css">
	.st0{fill-rule:evenodd;clip-rule:evenodd;}
</style>
<g id="Registration_Counter_2_">
	<g id="Registration_Counter_3_">
		<rect id="Registration_Counter_4_" x="979.2" y="123.4" class="st0" width="141.5" height="35.4"/>
	</g>
</g>
<g id="Entry_2_">
	<g id="Entry_3_">
		<rect id="Entry_4_" x="1120.8" y="123.4" class="st0" width="70.8" height="106.2"/>
	</g>
</g>
<g id="Exit_2_">
	<g id="Exit_3_">
		<rect id="Exit_4_" x="908.5" y="123.4" class="st0" width="70.8" height="106.2"/>
	</g>
</g>
<g id="Stage_2_">
	<g id="Stage_3_">
		<rect id="Stage_4_" x="979.2" y="158.8" class="st0" width="141.5" height="70.8"/>
	</g>
</g>
<g id="Waiting_Lounge">
	<g id="Waiting_Lounge_2_">
		<rect id="Waiting_Lounge_6_" x="519.2" y="123.4" class="st0" width="106.2" height="70.8"/>
	</g>
</g>
<g id="Waiting_Lounge_7_">
	<g id="Waiting_Lounge_8_">
		<rect id="Waiting_Lounge_9_" x="1474.6" y="123.4" class="st0" width="106.2" height="70.8"/>
	</g>
</g>
<g id="Vehicle_Passage_2_">
	<g id="Vehicle_Passage_3_">
		<polygon id="Vehicle_Passage_4_" class="st0" points="1580.8,123.4 1580.8,194.2 1899.3,194.2 1899.3,1255.8 1085.4,1255.8 
			1085.4,477.3 1014.6,477.3 1014.6,1255.8 200.7,1255.8 200.7,194.2 518.8,194.2 518.8,123.4 129.9,123.4 129.9,194.2 
			129.9,1255.8 129.9,1255.8 129.9,1326.6 1970.1,1326.6 1970.1,1255.8 1970.1,1255.8 1970.1,194.2 1970.1,123.4 		"/>
	</g>
</g>
<g id="TSP01_2_">
	<g id="TSP01_3_">
		<rect id="TSP01_4_" x="979.2" y="300.4" class="st0" width="141.5" height="70.8"/>
	</g>
</g>
<g id="CSP02_2_">
	<g id="CSP02_3_">
		<rect id="CSP02_4_" x="1156.2" y="300.4" class="st0" width="70.8" height="70.8"/>
	</g>
</g>
<g id="RGS03_2_">
	<g id="RGS03_3_">
		<rect id="RGS03_4_" x="1226.9" y="335.7" class="st0" width="70.8" height="35.4"/>
	</g>
</g>
<g id="RGS04_2_">
	<g id="RGS04_3_">
		<rect id="RGS04_4_" x="1297.7" y="335.7" class="st0" width="70.8" height="35.4"/>
	</g>
</g>
<g id="RGS05_2_">
	<g id="RGS05_3_">
		<rect id="RGS05_4_" x="1368.5" y="335.7" class="st0" width="70.8" height="35.4"/>
	</g>
</g>
<g id="RGS06_2_">
	<g id="RGS06_3_">
		<rect id="RGS06_6_" x="1439.3" y="300.4" class="st0" width="35.4" height="70.8"/>
	</g>
</g>
<g id="RGS07_2_">
	<g id="RGS07_3_">
		<rect id="RGS07_4_" x="1368.5" y="300.4" class="st0" width="70.8" height="35.4"/>
	</g>
</g>
<g id="RGS08_2_">
	<g id="RGS08_3_">
		<rect id="RGS08_4_" x="1297.7" y="300.4" class="st0" width="70.8" height="35.4"/>
	</g>
</g>
<g id="RGS09_2_">
	<g id="RGS09_3_">
		<rect id="RGS09_4_" x="1226.9" y="300.4" class="st0" width="70.8" height="35.4"/>
	</g>
</g>
<g id="ASP10_2_">
	<g id="ASP10_3_">
		<rect id="ASP10_4_" x="1191.5" y="123.4" class="st0" width="70.8" height="141.5"/>
	</g>
</g>
<g id="ASP11_2_">
	<g id="ASP11_3_">
		<rect id="ASP11_4_" x="1262.3" y="123.4" class="st0" width="70.8" height="141.5"/>
	</g>
</g>
<g id="ASP12_2_">
	<g id="ASP12_3_">
		<rect id="ASP12_4_" x="1333.1" y="123.4" class="st0" width="70.8" height="141.5"/>
	</g>
</g>
<g id="ASP13_2_">
	<g id="ASP13_3_">
		<rect id="ASP13_4_" x="1403.9" y="123.4" class="st0" width="70.8" height="141.5"/>
	</g>
</g>
<g id="UCS14_2_">
	<g id="UCS14_3_">
		<polygon id="UCS14_4_" class="st0" points="1899.3,265 1510,265 1510,194.2 1899.3,194.2 		"/>
	</g>
</g>
<g id="UCS15_2_">
	<g id="UCS15_3_">
		<polygon id="UCS15_4_" class="st0" points="1899.3,406.5 1510,406.5 1510,335.7 1899.3,335.7 		"/>
	</g>
</g>
<g id="UCS16_2_">
	<g id="UCS16_3_">
		<polygon id="UCS16_4_" class="st0" points="1899.3,477.3 1510,477.3 1510,406.5 1899.3,406.5 		"/>
	</g>
</g>
<g id="UCS17_2_">
	<g id="UCS17_3_">
		<polygon id="UCS17_4_" class="st0" points="1899.3,618.8 1510,618.8 1510,548.1 1899.3,548.1 		"/>
	</g>
</g>
<g id="UCS18_2_">
	<g id="UCS18_3_">
		<polygon id="UCS18_4_" class="st0" points="1899.3,689.6 1510,689.6 1510,618.8 1899.3,618.8 		"/>
	</g>
</g>
<g id="UCS19_2_">
	<g id="UCS19_3_">
		<polygon id="UCS19_4_" class="st0" points="1899.3,831.2 1510,831.2 1510,760.4 1899.3,760.4 		"/>
	</g>
</g>
<g id="UCS20_2_">
	<g id="UCS20_3_">
		<polygon id="UCS20_4_" class="st0" points="1899.3,901.9 1510,901.9 1510,831.2 1899.3,831.2 		"/>
	</g>
</g>
<g id="UCS21_2_">
	<g id="UCS21_3_">
		<polygon id="UCS21_4_" class="st0" points="1899.3,1043.5 1510,1043.5 1510,972.7 1899.3,972.7 		"/>
	</g>
</g>
<g id="UCS22_2_">
	<g id="UCS22_3_">
		<polygon id="UCS22_4_" class="st0" points="1899.3,1114.3 1510,1114.3 1510,1043.5 1899.3,1043.5 		"/>
	</g>
</g>
<g id="UCS23_2_">
	<g id="UCS23_3_">
		<polygon id="UCS23_4_" class="st0" points="1899.3,1255.8 1510,1255.8 1510,1185 1899.3,1185 		"/>
	</g>
</g>
<g id="UCS24_2_">
	<g id="UCS24_3_">
		<polygon id="UCS24_4_" class="st0" points="1474.6,1255.8 1085.4,1255.8 1085.4,1185 1474.6,1185 		"/>
	</g>
</g>
<g id="UCS25_2_">
	<g id="UCS25_3_">
		<polygon id="UCS25_4_" class="st0" points="1474.6,1114.3 1085.4,1114.3 1085.4,1043.5 1474.6,1043.5 		"/>
	</g>
</g>
<g id="UCS26_2_">
	<g id="UCS26_3_">
		<polygon id="UCS26_4_" class="st0" points="1474.6,1043.5 1085.4,1043.5 1085.4,972.7 1474.6,972.7 		"/>
	</g>
</g>
<g id="UCS27_2_">
	<g id="UCS27_3_">
		<polygon id="UCS27_4_" class="st0" points="1474.6,901.9 1085.4,901.9 1085.4,831.2 1474.6,831.2 		"/>
	</g>
</g>
<g id="UCS28_2_">
	<g id="UCS28_3_">
		<polygon id="UCS28_4_" class="st0" points="1474.6,831.2 1085.4,831.2 1085.4,760.4 1474.6,760.4 		"/>
	</g>
</g>
<g id="UCS29_2_">
	<g id="UCS29_3_">
		<polygon id="UCS29_4_" class="st0" points="1474.6,689.6 1085.4,689.6 1085.4,618.8 1474.6,618.8 		"/>
	</g>
</g>
<g id="UCS30_2_">
	<g id="UCS30_3_">
		<polygon id="UCS30_4_" class="st0" points="1474.6,618.8 1085.4,618.8 1085.4,548.1 1474.6,548.1 		"/>
	</g>
</g>
<g id="RGS31_2_">
	<g id="RGS31_3_">
		<rect id="RGS31_4_" x="1191.5" y="441.9" class="st0" width="70.8" height="35.4"/>
	</g>
</g>
<g id="RGS32_2_">
	<g id="RGS32_3_">
		<rect id="RGS32_4_" x="1262.3" y="441.9" class="st0" width="70.8" height="35.4"/>
	</g>
</g>
<g id="RGS33_2_">
	<g id="RGS33_3_">
		<rect id="RGS33_4_" x="1333.1" y="441.9" class="st0" width="70.8" height="35.4"/>
	</g>
</g>
<g id="RGS34_2_">
	<g id="RGS34_3_">
		<rect id="RGS34_4_" x="1403.9" y="441.9" class="st0" width="70.8" height="35.4"/>
	</g>
</g>
<g id="RGS35_2_">
	<g id="RGS35_3_">
		<rect id="RGS35_4_" x="1403.9" y="406.5" class="st0" width="70.8" height="35.4"/>
	</g>
</g>
<g id="RGS36_2_">
	<g id="RGS36_3_">
		<rect id="RGS36_4_" x="1333.1" y="406.5" class="st0" width="70.8" height="35.4"/>
	</g>
</g>
<g id="RGS37_2_">
	<g id="RGS37_3_">
		<rect id="RGS37_4_" x="1262.3" y="406.5" class="st0" width="70.8" height="35.4"/>
	</g>
</g>
<g id="RGS38_2_">
	<g id="RGS38_3_">
		<rect id="RGS38_4_" x="1191.5" y="406.5" class="st0" width="70.8" height="35.4"/>
	</g>
</g>
<g id="ASP39_2_">
	<g id="ASP39_3_">
		<rect id="ASP39_4_" x="1120.8" y="406.5" class="st0" width="70.8" height="70.8"/>
	</g>
</g>
<g id="ASP40_2_">
	<g id="ASP40_3_">
		<rect id="ASP40_4_" x="1050" y="406.5" class="st0" width="70.8" height="70.8"/>
	</g>
</g>
<g id="ASP41_2_">
	<g id="ASP41_3_">
		<rect id="ASP41_4_" x="979.2" y="406.5" class="st0" width="70.8" height="70.8"/>
	</g>
</g>
<g id="ASP42_2_">
	<g id="ASP42_3_">
		<rect id="ASP42_4_" x="908.5" y="406.5" class="st0" width="70.8" height="70.8"/>
	</g>
</g>
<g id="RGS43_2_">
	<g id="RGS43_3_">
		<rect id="RGS43_4_" x="837.7" y="406.5" class="st0" width="70.8" height="35.4"/>
	</g>
</g>
<g id="RGS44_2_">
	<g id="RGS44_3_">
		<rect id="RGS44_4_" x="766.9" y="406.5" class="st0" width="70.8" height="35.4"/>
	</g>
</g>
<g id="RGS45_2_">
	<g id="RGS45_3_">
		<rect id="RGS45_4_" x="696.1" y="406.5" class="st0" width="70.8" height="35.4"/>
	</g>
</g>
<g id="RGS46_2_">
	<g id="RGS46_3_">
		<rect id="RGS46_4_" x="625.4" y="406.5" class="st0" width="70.8" height="35.4"/>
	</g>
</g>
<g id="RGS47_2_">
	<g id="RGS47_3_">
		<rect id="RGS47_4_" x="625.4" y="441.9" class="st0" width="70.8" height="35.4"/>
	</g>
</g>
<g id="RGS48_2_">
	<g id="RGS48_3_">
		<rect id="RGS48_4_" x="696.1" y="441.9" class="st0" width="70.8" height="35.4"/>
	</g>
</g>
<g id="RGS49_2_">
	<g id="RGS49_3_">
		<rect id="RGS49_4_" x="766.9" y="441.9" class="st0" width="70.8" height="35.4"/>
	</g>
</g>
<g id="RGS50_2_">
	<g id="RGS50_3_">
		<rect id="RGS50_4_" x="837.7" y="441.9" class="st0" width="70.8" height="35.4"/>
	</g>
</g>
<g id="UCS51_2_">
	<g id="UCS51_3_">
		<polygon id="UCS51_4_" class="st0" points="1014.6,618.8 625.4,618.8 625.4,548.1 1014.6,548.1 		"/>
	</g>
</g>
<g id="UCS52_2_">
	<g id="UCS52_3_">
		<polygon id="UCS52_4_" class="st0" points="1014.6,689.6 625.4,689.6 625.4,618.8 1014.6,618.8 		"/>
	</g>
</g>
<g id="UCS53_2_">
	<g id="UCS53_3_">
		<polygon id="UCS53_4_" class="st0" points="1014.6,831.2 625.4,831.2 625.4,760.4 1014.6,760.4 		"/>
	</g>
</g>
<g id="UCS54_2_">
	<g id="UCS54_3_">
		<polygon id="UCS54_4_" class="st0" points="1014.6,901.9 625.4,901.9 625.4,831.2 1014.6,831.2 		"/>
	</g>
</g>
<g id="UCS55_2_">
	<g id="UCS55_3_">
		<polygon id="UCS55_4_" class="st0" points="1014.6,1043.5 625.4,1043.5 625.4,972.7 1014.6,972.7 		"/>
	</g>
</g>
<g id="UCS56_2_">
	<g id="UCS56_3_">
		<polygon id="UCS56_4_" class="st0" points="1014.6,1114.3 625.4,1114.3 625.4,1043.5 1014.6,1043.5 		"/>
	</g>
</g>
<g id="UCS57_2_">
	<g id="UCS57_3_">
		<polygon id="UCS57_4_" class="st0" points="1014.6,1255.8 625.4,1255.8 625.4,1185 1014.6,1185 		"/>
	</g>
</g>
<g id="UCS58_2_">
	<g id="UCS58_3_">
		<polygon id="UCS58_4_" class="st0" points="590,1255.8 200.7,1255.8 200.7,1185 590,1185 		"/>
	</g>
</g>
<g id="UCS59_2_">
	<g id="UCS59_3_">
		<polygon id="UCS59_4_" class="st0" points="590,1114.3 200.7,1114.3 200.7,1043.5 590,1043.5 		"/>
	</g>
</g>
<g id="UCS60_2_">
	<g id="UCS60_3_">
		<polygon id="UCS60_4_" class="st0" points="590,1043.5 200.7,1043.5 200.7,972.7 590,972.7 		"/>
	</g>
</g>
<g id="UCS61_2_">
	<g id="UCS61_3_">
		<polygon id="UCS61_4_" class="st0" points="590,901.9 200.7,901.9 200.7,831.2 590,831.2 		"/>
	</g>
</g>
<g id="UCS62_2_">
	<g id="UCS62_3_">
		<polygon id="UCS62_4_" class="st0" points="590,831.2 200.7,831.2 200.7,760.4 590,760.4 		"/>
	</g>
</g>
<g id="UCS63_2_">
	<g id="UCS63_3_">
		<polygon id="UCS63_4_" class="st0" points="590,689.6 200.7,689.6 200.7,618.8 590,618.8 		"/>
	</g>
</g>
<g id="UCS64_2_">
	<g id="UCS64_3_">
		<polygon id="UCS64_4_" class="st0" points="590,618.8 200.7,618.8 200.7,548.1 590,548.1 		"/>
	</g>
</g>
<g id="UCS65_2_">
	<g id="UCS65_3_">
		<polygon id="UCS65_4_" class="st0" points="590,477.3 200.7,477.3 200.7,406.5 590,406.5 		"/>
	</g>
</g>
<g id="UCS66_2_">
	<g id="UCS66_3_">
		<polygon id="UCS66_4_" class="st0" points="590,406.5 200.7,406.5 200.7,335.7 590,335.7 		"/>
	</g>
</g>
<g id="UCS67_2_">
	<g id="UCS67_3_">
		<polygon id="UCS67_4_" class="st0" points="590,265 200.7,265 200.7,194.2 590,194.2 		"/>
	</g>
</g>
<g id="ASP68_2_">
	<g id="ASP68_3_">
		<rect id="ASP68_4_" x="625.4" y="123.4" class="st0" width="70.8" height="141.5"/>
	</g>
</g>
<g id="ASP69_2_">
	<g id="ASP69_3_">
		<rect id="ASP69_4_" x="696.1" y="123.4" class="st0" width="70.8" height="141.5"/>
	</g>
</g>
<g id="ASP70_2_">
	<g id="ASP70_3_">
		<rect id="ASP70_4_" x="766.9" y="123.4" class="st0" width="70.8" height="141.5"/>
	</g>
</g>
<g id="ASP71_2_">
	<g id="ASP71_3_">
		<rect id="ASP71_4_" x="837.7" y="123.4" class="st0" width="70.8" height="141.5"/>
	</g>
</g>
<g id="RGS72_2_">
	<g id="RGS72_3_">
		<rect id="RGS72_4_" x="802.3" y="300.4" class="st0" width="70.8" height="35.4"/>
	</g>
</g>
<g id="RGS73_2_">
	<g id="RGS73_3_">
		<rect id="RGS73_4_" x="731.5" y="300.4" class="st0" width="70.8" height="35.4"/>
	</g>
</g>
<g id="RGS74_2_">
	<g id="RGS74_3_">
		<rect id="RGS74_4_" x="660.7" y="300.4" class="st0" width="70.8" height="35.4"/>
	</g>
</g>
<g id="RGS75_2_">
	<g id="RGS75_3_">
		<rect id="RGS75_4_" x="625.4" y="300.4" class="st0" width="35.4" height="70.8"/>
	</g>
</g>
<g id="RGS76_2_">
	<g id="RGS76_3_">
		<rect id="RGS76_4_" x="660.7" y="335.7" class="st0" width="70.8" height="35.4"/>
	</g>
</g>
<g id="RGS77_2_">
	<g id="RGS77_3_">
		<rect id="RGS77_4_" x="731.5" y="335.7" class="st0" width="70.8" height="35.4"/>
	</g>
</g>
<g id="RGS78_2_">
	<g id="RGS78_3_">
		<rect id="RGS78_4_" x="802.3" y="335.7" class="st0" width="70.8" height="35.4"/>
	</g>
</g>
<g id="CSP79_2_">
	<g id="CSP79_3_">
		<rect id="CSP79_4_" x="873.1" y="300.4" class="st0" width="70.8" height="70.8"/>
	</g>
</g>
</svg>
